<?xml version="1.0" encoding="utf-8"?>
<!-- Generator: Adobe Illustrator 20.1.0, SVG Export Plug-In . SVG Version: 6.00 Build 0)  -->
<!DOCTYPE svg PUBLIC "-//W3C//DTD SVG 1.1//EN" "http://www.w3.org/Graphics/SVG/1.1/DTD/svg11.dtd">
<svg version="1.1" id="Layer_1" xmlns="http://www.w3.org/2000/svg" xmlns:xlink="http://www.w3.org/1999/xlink" x="0px" y="0px"
	 viewBox="0 0 127.3 94.5" style="enable-background:new 0 0 127.3 94.5;" xml:space="preserve">
<style type="text/css">
	.Graphic_x0020_Style{fill:url(#SVGID_1_);}
	.st0{display:none;fill:url(#SVGID_2_);}
	.st1{fill:url(#SVGID_3_);}
	.st2{fill:url(#SVGID_4_);}
	.st3{fill:url(#SVGID_5_);}
	.st4{fill:url(#SVGID_6_);}
	.st5{fill:#E3E0E0;}
	.st6{fill:#651FFF;}
	.st7{fill:url(#SVGID_7_);}
	.st8{fill:url(#SVGID_8_);}
	.st9{fill:url(#SVGID_9_);}
</style>
<linearGradient id="SVGID_1_" gradientUnits="userSpaceOnUse" x1="-258.6875" y1="-187.7812" x2="-257.8409" y2="-187.249">
	<stop  offset="5.617980e-03" style="stop-color:#310B8C"/>
	<stop  offset="0.4607" style="stop-color:#512DA8"/>
	<stop  offset="1" style="stop-color:#310B8C"/>
</linearGradient>
<g>
	
		<radialGradient id="SVGID_2_" cx="34.4891" cy="-166.8549" r="26.2482" gradientTransform="matrix(1.5502 0 0 0.2019 -4.168 132.843)" gradientUnits="userSpaceOnUse">
		<stop  offset="0" style="stop-color:#BEBEBE"/>
		<stop  offset="1" style="stop-color:#FFFFFF"/>
	</radialGradient>
	<ellipse class="st0" cx="49.3" cy="99.2" rx="40.7" ry="5.3"/>
	<g>
		<linearGradient id="SVGID_3_" gradientUnits="userSpaceOnUse" x1="54.451" y1="12.6965" x2="88.6894" y2="32.4724">
			<stop  offset="0" style="stop-color:#222020"/>
			<stop  offset="0.5169" style="stop-color:#474747"/>
			<stop  offset="1" style="stop-color:#1D1C1B"/>
		</linearGradient>
		<path class="st1" d="M90.9,27.5c-0.1,0.3-0.2,0.7-0.3,1c-1.6,5.2-10.9,4.8-20.8-0.7c-10-5.5-15.5-13.5-12.3-17.8
			c0.2-0.3,0.4-0.6,0.6-0.8c-3.1,4.1,2.4,11.9,12.3,17.4C80.3,32,89.4,32.5,90.9,27.5z"/>
		<linearGradient id="SVGID_4_" gradientUnits="userSpaceOnUse" x1="120.7545" y1="77.6995" x2="71.0721" y2="42.3952">
			<stop  offset="0" style="stop-color:#474747"/>
			<stop  offset="1.044118e-02" style="stop-color:#464646"/>
			<stop  offset="0.6465" style="stop-color:#282827"/>
			<stop  offset="1" style="stop-color:#1D1C1B"/>
		</linearGradient>
		<path class="st2" d="M123.1,73.1c-0.1,0.5-0.2,1.1-0.2,1.6c-11.8-5.9-23.3-3.2-33.2-10C79.3,57.6,73.3,46,76.4,39
			c0.2-0.5,0.4-1,0.7-1.5c-3,6.9,3,18.2,13.3,25.3C100.2,69.7,111.5,67.1,123.1,73.1z"/>
		<linearGradient id="SVGID_5_" gradientUnits="userSpaceOnUse" x1="0.9384" y1="20.1235" x2="57.977" y2="20.1235">
			<stop  offset="0" style="stop-color:#474747"/>
			<stop  offset="1.044118e-02" style="stop-color:#464646"/>
			<stop  offset="0.6465" style="stop-color:#282827"/>
			<stop  offset="1" style="stop-color:#1D1C1B"/>
		</linearGradient>
		<path class="st3" d="M58,26.9c-0.3,0.5-0.6,0.9-0.8,1.4c-3.9,6.6-16.8,7.8-28.5,2.7C17.3,26.1,12.9,14.4,0.9,7.2
			c0.4-0.4,0.8-0.7,1.2-1.1c11.9,7,16.4,18.4,27.6,23.3C41.5,34.4,54.1,33.3,58,26.9z"/>
		<linearGradient id="SVGID_6_" gradientUnits="userSpaceOnUse" x1="25.6347" y1="58.8502" x2="65.9487" y2="84.1985">
			<stop  offset="5.617980e-03" style="stop-color:#310B8C"/>
			<stop  offset="0.4607" style="stop-color:#512DA8"/>
			<stop  offset="1" style="stop-color:#310B8C"/>
		</linearGradient>
		<path class="st4" d="M75.7,66.7c0.3-0.7,0.6-1.4,0.9-2c-4.3,9.7-22.3,11.9-39.1,24.4c1.3-20.7-7.1-37.8-1.5-46.8
			c-0.4,0.6-0.8,1.3-1.2,1.9c-5.7,9.2,2.7,26.6,1.3,47.5C53.1,79,71.3,76.6,75.7,66.7z"/>
		<path class="st5" d="M70.5,26.6c9.5,5.3,18.3,5.9,20.3,1.4c-2.4,3.9-10.9,3.1-20-2c-9.2-5.1-14.7-12.2-12.8-16.5
			C55.3,13.7,60.8,21.2,70.5,26.6z"/>
		<path class="st5" d="M90.6,62.3C80.4,55.2,74.3,43.8,77.4,37c0-0.1,0.1-0.1,0.1-0.2c-0.1,0.2-0.3,0.5-0.4,0.7
			c-3,6.9,3,18.2,13.3,25.3c9.8,6.8,21.1,4.3,32.7,10.2c-0.4-0.4-0.8-0.8-1.1-1.2C110.8,66.8,100,68.8,90.6,62.3z"/>
		<path class="st5" d="M58,26.9c0.1-0.2,0.2-0.3,0.3-0.5c-3.8,6.4-16.5,7.5-28.2,2.5C19.2,24.2,14.7,13.4,3.7,6.4
			C3.3,6.3,2.9,6.2,2.4,6.1c-0.1,0-0.2,0-0.3,0c11.9,7,16.4,18.4,27.6,23.3C41.5,34.4,54.1,33.3,58,26.9z"/>
		<path class="st6" d="M35.8,42.7c-5.1,9.1,3,26,1.7,46.4C54,76.9,71.7,74.5,76.4,65.2C71.3,74,54,76.6,37.8,88.6
			C39.1,68.6,31.3,52,35.8,42.7z"/>
		
			<linearGradient id="SVGID_7_" gradientUnits="userSpaceOnUse" x1="42.1329" y1="36.1287" x2="42.1329" y2="74.8667" gradientTransform="matrix(0.8815 0.4722 -0.4722 0.8815 62.751 -49.8244)">
			<stop  offset="0" style="stop-color:#0E0E0E"/>
			<stop  offset="1" style="stop-color:#E1E1E1"/>
		</linearGradient>
		<path class="st7" d="M90.7,28c0.1-0.2,0.1-0.3,0.2-0.5c1.2-4.2-6.7-13.7-11-20C73,7.4,60.8,5.8,58.2,9.2c-0.1,0.1-0.1,0.2-0.2,0.3
			c-1.9,4.3,3.6,11.4,12.8,16.5C79.8,31.1,88.3,31.9,90.7,28z M121.7,70.8c-8.8-14.2-15.5-26.4-23.6-32.4c-8-5.9-16.6-6.8-20.1-2.4
			c-0.1,0.2-0.2,0.3-0.3,0.5c17.5,10.7,32.5,22.9,44.2,35.4c0.2,0.1,0.4,0.2,0.6,0.3C122.2,71.7,121.9,71.3,121.7,70.8z M45.3,9
			c-9.5-3.8-23.2-2.9-40-2.9c-0.6,0-1.3,0-2,0c0.1,0.1,0.3,0.2,0.4,0.3C21,10,39.7,16.5,58.5,25.9c0.1-0.2,0.1-0.4,0.2-0.6
			C60.2,19.8,54.7,12.8,45.3,9z"/>
		
			<linearGradient id="SVGID_8_" gradientUnits="userSpaceOnUse" x1="42.0371" y1="64.0183" x2="42.0371" y2="90.143" gradientTransform="matrix(0.8815 0.4722 -0.4722 0.8815 62.751 -49.8244)">
			<stop  offset="0" style="stop-color:#0E0E0E"/>
			<stop  offset="1" style="stop-color:#E1E1E1"/>
		</linearGradient>
		<path class="st8" d="M77.6,36.5c-0.1,0.1-0.1,0.2-0.2,0.3c0,0.1-0.1,0.1-0.1,0.2c-3,6.9,3,18.2,13.3,25.3
			c9.4,6.5,20.2,4.4,31.3,9.5C110.2,59.4,95.1,47.3,77.6,36.5z M3.7,6.4c11,7,15.5,17.8,26.4,22.5c11.7,5,24.3,4,28.2-2.5
			c0.1-0.2,0.2-0.3,0.2-0.5C39.7,16.5,21,10,3.7,6.4z"/>
		<linearGradient id="SVGID_9_" gradientUnits="userSpaceOnUse" x1="64.4494" y1="37.6074" x2="38.2592" y2="88.8503">
			<stop  offset="0" style="stop-color:#311B92"/>
			<stop  offset="1" style="stop-color:#7C4DFF"/>
		</linearGradient>
		<path class="st9" d="M64.4,38.2c-10.6-5.9-23.3-4.1-28.4,4.1c-0.1,0.1-0.2,0.3-0.2,0.4c-4.5,9.2,3.3,25.9,2,45.9
			C54,76.6,71.3,74,76.4,65.2c0.1-0.2,0.2-0.4,0.3-0.5C80.5,55.9,75,44.1,64.4,38.2z"/>
	</g>
</g>
</svg>
