<?xml version="1.0" encoding="utf-8"?>
<!-- Generator: Adobe Illustrator 20.1.0, SVG Export Plug-In . SVG Version: 6.00 Build 0)  -->
<!DOCTYPE svg PUBLIC "-//W3C//DTD SVG 1.1//EN" "http://www.w3.org/Graphics/SVG/1.1/DTD/svg11.dtd">
<svg version="1.1" id="Layer_1" xmlns="http://www.w3.org/2000/svg" xmlns:xlink="http://www.w3.org/1999/xlink" x="0px" y="0px"
	 viewBox="0 0 365 454.5" style="enable-background:new 0 0 365 454.5;" xml:space="preserve">
<style type="text/css">
	.st0{fill:#FFFFFF;}
</style>
<g>
	<path class="st0" d="M117.1,419.6c-9.1-5.5-17.5-12-25.2-19.2l-15.3-40.7l15.8-5.9L117.1,419.6L117.1,419.6z"/>
	<path class="st0" d="M178.3,440.4c-6-0.7-11.9-1.7-17.6-3l-15.8-93.6l16.6-2.8L178.3,440.4L178.3,440.4z"/>
	<path class="st0" d="M229.3,437.3c-5.5,1.3-11,2.3-16.7,2.9l-7.5-97.2l16.8-1.3L229.3,437.3L229.3,437.3z"/>
	<path class="st0" d="M317.2,344l-9.5,46c-6.4,7.4-13.6,14.1-21.4,20.1l14.4-69.4L317.2,344L317.2,344z"/>
	<path class="st0" d="M15.4,244c-6.8-31.2,15.9-53.2,33.4-65.2c-9.7-14.1-7.1-24.1,3.3-32c9.9-7.6,27.9-11.4,48.1-15.7
		c29.7-6.3,64.6-13.8,75.9-33.6c8.9-15.5,6.5-28.9-0.4-37.9c-2.6-3.4-5.9-6.3-9.5-8.4c-3.5-2-7.2-3.3-10.9-3.8
		c-17-2.1-24.2,22.9-31.3,36.4c-0.8-34.2,1.5-82.8,52.9-77c0.7,0.1,1.5,0.2,2.6,0.4c19.1,3,46.4,17,67.9,37.8
		c15.7,15.1,28.5,34,33.2,55c1.5,4.6,12.3,35.7,36.5,46.1c11.1,4.8,23.3,16.2,31.2,30.2c5.3,9.5,8.8,20.4,8.7,31.5
		c0,11.4-3.8,22.9-12.9,33.1c-9.6,10.8-25.3,20-49.1,25.9c-78.6,19.5-131.1,20.1-192.8-25.4c70.2,16.3,110.9,28.3,188.7,9
		c20.2-5,33.1-12.3,40.6-20.7c6.1-6.8,8.6-14.4,8.6-21.9c0-7.9-2.6-15.9-6.6-23.2c-6.1-10.8-15.1-19.5-23.1-22.9
		c-13-5.6-22.9-15.5-30.1-25.5c-12,60.6-46.5,55.9-46.6,55.9c29.3-20.6,24.6-23.6,31.2-65.1c0.1-0.7,0.2-1.6,0.4-2.7
		c2.9-25.4-11-49-29.6-67c-19.1-18.4-42.7-30.7-58.9-33.3c-0.4-0.1-1-0.1-1.8-0.2c-9.5-1.1-16.7,2.1-22,6.8c1.4,0,2.8,0.1,4.3,0.3
		c5.9,0.7,11.8,2.8,17.3,6c5.4,3.2,10.4,7.4,14.4,12.6c10.6,13.8,14.5,33.9,1.6,56.5c-15.1,26.5-54,34.7-87.1,41.8
		c-73,15.5-45.2,41.7,12.5,54.5c51.2,11.4,118.4,6,118.5,6c-48.2,21.4-134.1,15.7-174.3-16.9c-13.4,8.8-31.4,25.2-27.9,48.3
		c13.3,86.2,248.4,56.6,310,48.4C273.6,315.3,38,347.4,15.4,244L15.4,244z"/>
</g>
</svg>
